<?xml version="1.0" encoding="UTF-8"?>
<svg version="1.1" xmlns="http://www.w3.org/2000/svg" width="1280" height="1280">
<path d="M0 0 C2.15536925 0.26564363 4.31189914 0.5199397 6.46875 0.77325439 C84.2705224 10.02765261 158.66985492 33.86238763 262.0546875 88.25323486 C263.83330244 89.31969264 265.61194784 90.38609961 267.390625 91.45245361 C292.20952535 106.45600878 315.87821039 123.56212087 338.0546875 142.25323486 C339.11841499 143.142647 340.1822218 144.03196428 341.24609375 144.92120361 C347.10499536 149.83415893 352.88573911 154.81720823 358.53613281 159.97027588 C360.06158112 161.35302763 361.59505808 162.72708566 363.14306641 164.08453369 C370.76855489 170.80061457 377.92447682 177.97127616 385.09643555 185.16461182 C387.24480616 187.31836008 389.39849444 189.46668713 391.55273438 191.61456299 C392.94302918 193.00551841 394.33301386 194.39678389 395.72265625 195.78839111 C396.35511765 196.41882828 396.98757904 197.04926544 397.63920593 197.69880676 C401.97402174 202.05610155 406.05278215 206.58962942 410.0546875 211.25323486 C410.99314691 212.33556333 411.93188695 213.41764864 412.87109375 214.49932861 C425.91769756 229.62933993 438.39095578 245.02573103 450.0546875 261.25323486 C450.58336426 261.98574463 451.11204102 262.71825439 451.65673828 263.47296143 C467.69761883 285.74218764 482.03492154 309.09743458 495.0546875 333.25323486 C495.51311035 334.10159912 495.9715332 334.94996338 496.44384766 335.82403564 C534.61782377 406.81083726 557.99537143 483.96129897 567.76043701 563.85552979 C568.03288889 566.07560849 568.31469964 568.29430442 568.59814453 570.51300049 C574.14536354 614.90787675 573.59439744 662.89550924 568.0546875 707.25323486 C567.95758484 708.05392395 567.86048218 708.85461304 567.76043701 709.67956543 C557.49941732 794.25616774 532.30253635 877.81301874 482.68505859 963.53497314 C481.12530809 966.13549158 479.59522785 968.75100661 478.07421875 971.37432861 C470.42458909 984.49037152 461.90122532 996.91905679 453.0546875 1009.25323486 C452.43770996 1010.11400635 451.82073242 1010.97477783 451.18505859 1011.8616333 C443.1841138 1022.97513812 434.82424129 1033.73705959 426.0546875 1044.25323486 C425.56871094 1044.83830811 425.08273437 1045.42338135 424.58203125 1046.02618408 C419.05449889 1052.67014243 413.39913777 1059.16761552 407.5390625 1065.52276611 C405.61536902 1067.63701414 403.74081746 1069.77434045 401.87573242 1071.93927002 C398.21630979 1076.12489483 394.36984901 1080.08294728 390.43359375 1084.00714111 C389.73000229 1084.7116893 389.02641083 1085.41623749 388.30149841 1086.14213562 C386.82454102 1087.61976853 385.34634008 1089.09615943 383.86694336 1090.5713501 C381.62303665 1092.80989968 379.38452046 1095.05373959 377.14648438 1097.29815674 C375.70084132 1098.7431389 374.25488805 1100.18781078 372.80859375 1101.63214111 C371.82071617 1102.62305504 371.82071617 1102.62305504 370.81288147 1103.63398743 C366.38726888 1108.03771683 361.79386926 1112.19028458 357.0546875 1116.25323486 C355.97231328 1117.1916415 354.89022023 1118.13037271 353.80859375 1119.06964111 C338.67858244 1132.11624493 323.28219133 1144.58950314 307.0546875 1156.25323486 C306.32217773 1156.78191162 305.58966797 1157.31058838 304.83496094 1157.85528564 C235.00971957 1208.15152609 155.22986328 1243.76280771 11.9296875 1273.06573486 C11.17448822 1273.16519409 10.41928894 1273.26465332 9.64120483 1273.36712646 C-15.38059695 1276.61705824 -40.3714251 1277.6347205 -65.57538605 1277.57129288 C-67.85728526 1277.56564333 -70.13917702 1277.56282855 -72.42108154 1277.56021118 C-95.04229454 1277.52251248 -117.47422789 1277.05646196 -139.9453125 1274.25323486 C-141.38003848 1274.0798363 -142.81477171 1273.90649778 -144.24951172 1273.73321533 C-216.86725324 1264.8228805 -287.1224167 1244.06640825 -399.9453125 1186.25323486 C-400.95803223 1185.63706299 -401.97075195 1185.02089111 -403.01416016 1184.38604736 C-416.00231869 1176.46422047 -428.66054787 1168.22531782 -440.9453125 1159.25323486 C-442.51294546 1158.12031807 -444.08065662 1156.98750946 -445.6484375 1155.85479736 C-456.02851919 1148.31724182 -466.09593175 1140.47065704 -475.9453125 1132.25323486 C-476.53570312 1131.76194092 -477.12609375 1131.27064697 -477.734375 1130.76446533 C-484.07577653 1125.47700189 -490.32638717 1120.09940648 -496.42797852 1114.53521729 C-497.95300213 1113.15277176 -499.48607429 1111.77904101 -501.03369141 1110.42193604 C-508.65917989 1103.70585515 -515.81510182 1096.53519357 -522.98706055 1089.34185791 C-525.13543116 1087.18810964 -527.28911944 1085.0397826 -529.44335938 1082.89190674 C-530.83365418 1081.50095132 -532.22363886 1080.10968583 -533.61328125 1078.71807861 C-534.24574265 1078.08764145 -534.87820404 1077.45720428 -535.52983093 1076.80766296 C-539.86503709 1072.44997581 -543.9366918 1067.91138535 -547.9453125 1063.25323486 C-548.99084356 1062.06194985 -550.03752075 1060.87166856 -551.0859375 1059.68292236 C-557.8016049 1052.02204745 -564.25379808 1044.21771184 -570.47363281 1036.15020752 C-572.05242638 1034.1151667 -573.64969256 1032.09561398 -575.25 1030.07745361 C-597.19912424 1002.30484054 -616.15875383 972.39763176 -632.9453125 941.25323486 C-633.40373535 940.40487061 -633.8621582 939.55650635 -634.33447266 938.68243408 C-672.43758547 867.82740705 -696.37962129 790.2442495 -705.6953125 710.37115479 C-705.93485654 708.34181438 -706.18782715 706.31407244 -706.44140625 704.28643799 C-711.85486465 659.7037 -711.5081995 611.79654454 -705.9453125 567.25323486 C-705.84820984 566.45254578 -705.75110718 565.65185669 -705.65106201 564.8269043 C-700.16781112 519.63113003 -690.57853554 475.39677999 -675.9453125 432.25323486 C-675.53941895 431.05086182 -675.13352539 429.84848877 -674.71533203 428.60968018 C-654.93610163 370.26579489 -626.73895185 312.12864428 -589.28710938 263.01885986 C-587.84194717 261.11721993 -586.41576322 259.20233199 -584.9921875 257.28448486 C-572.75443565 240.81860943 -560.01541042 224.91389343 -546.1965332 209.73980713 C-544.82670162 208.2267679 -543.46546961 206.70580576 -542.12011719 205.17095947 C-535.40161868 197.54375615 -528.22932189 190.38549014 -521.03393555 183.21148682 C-518.88018728 181.0631162 -516.73186024 178.90942793 -514.58398438 176.75518799 C-513.19302896 175.36489318 -511.80176347 173.9749085 -510.41015625 172.58526611 C-509.77971909 171.95280472 -509.14928192 171.32034332 -508.4997406 170.66871643 C-504.14244582 166.33390062 -499.60891794 162.25514021 -494.9453125 158.25323486 C-493.86298403 157.31477545 -492.78089873 156.37603541 -491.69921875 155.43682861 C-476.56920744 142.3902248 -461.17281633 129.91696658 -444.9453125 118.25323486 C-444.21280273 117.72455811 -443.48029297 117.19588135 -442.72558594 116.65118408 C-374.21450793 67.30155656 -296.052428 32.05388582 -140.9453125 0.25323486 C-139.75196289 0.10370361 -138.55861328 -0.04582764 -137.32910156 -0.19989014 C-92.74392805 -5.63111106 -44.57081565 -5.51014326 0 0 Z " fill="#F7931A" transform="translate(708.9453125,2.74676513671875)"/>
<path d="M0 0 C5.59779893 0.80851266 11.01308229 2.19415249 16.48828125 3.58203125 C17.50488327 3.83748215 18.52148529 4.09293304 19.56889343 4.35612488 C22.81733178 5.17267333 26.06496851 5.99235292 29.3125 6.8125 C33.55818107 7.8831556 37.8042497 8.95225385 42.05078125 10.01953125 C43.07487091 10.27695099 44.09896057 10.53437073 45.15408325 10.79959106 C53.74962868 12.95272743 62.36564454 15.00870778 71 17 C69.76656456 24.20620113 68.28407122 31.29347405 66.49389648 38.38085938 C66.25137146 39.35300385 66.00884644 40.32514832 65.75897217 41.32675171 C64.96641775 44.49994746 64.16885203 47.67185891 63.37109375 50.84375 C62.81556651 53.06279734 62.26031891 55.28191471 61.70533752 57.50109863 C60.54667688 62.13115763 59.3857189 66.76063195 58.22290039 71.38964844 C56.73110567 77.32841804 55.24345212 83.26821485 53.75729275 89.20839691 C52.61309807 93.78102574 51.46757156 98.35331997 50.32155037 102.92549133 C49.77231042 105.11675031 49.22329196 107.30806481 48.6744976 109.49943542 C47.90980094 112.55136696 47.14351268 115.60289415 46.37670898 118.65429688 C46.03616234 120.01480667 46.03616234 120.01480667 45.68873596 121.40280151 C45.47989777 122.23244415 45.27105957 123.06208679 45.05589294 123.91687012 C44.78463419 124.99744312 44.78463419 124.99744312 44.50789547 126.09984589 C44.0665939 127.75085687 43.54042431 129.37872707 43 131 C43.66104736 131.09869385 44.32209473 131.1973877 45.00317383 131.29907227 C53.54533805 132.64282401 61.94215094 134.46619031 70.36450195 136.40405273 C72.69286091 136.93873107 75.02306085 137.46477563 77.35351562 137.99023438 C84.6964294 139.66167983 91.91315124 141.41633742 99 144 C99.17295043 142.98823621 99.17295043 142.98823621 99.3493948 141.95603275 C100.49035154 135.46106941 101.87817696 129.08381941 103.50610352 122.69506836 C103.74862854 121.73107117 103.99115356 120.76707397 104.24102783 119.77386475 C105.03340743 116.62827522 105.83100952 113.48403794 106.62890625 110.33984375 C107.18441084 108.14081593 107.73965883 105.94172328 108.29466248 103.74256897 C109.45318002 99.15535061 110.61418628 94.56877192 111.77709961 89.98266602 C113.26977855 84.09559261 114.75710071 78.20718189 116.24270725 72.31832027 C117.38614766 67.78757224 118.53191562 63.25741549 119.67844963 58.72744942 C120.22809007 56.5550033 120.77710921 54.3823999 121.3255024 52.2096386 C122.0891309 49.18596406 122.85577272 46.16307001 123.62329102 43.14038086 C123.96383766 41.78850426 123.96383766 41.78850426 124.31126404 40.40931702 C124.52010223 39.5894632 124.72894043 38.76960938 124.94410706 37.9249115 C125.21536581 36.85401732 125.21536581 36.85401732 125.49210453 35.76148891 C126 34 126 34 127 32 C134.81425997 32.62426097 142.13560594 34.38555799 149.71484375 36.34375 C151.01986566 36.67669275 152.32500811 37.00916336 153.63026428 37.34118652 C156.3466778 38.03348477 159.06203605 38.72972839 161.77661133 39.42919922 C165.25764362 40.32608008 168.74051923 41.2155338 172.22411251 42.10240936 C174.91057075 42.78672393 177.5963761 43.47356984 180.28195381 44.16133118 C182.19070778 44.65006996 184.09973912 45.13772505 186.0087738 45.62536621 C187.73680992 46.0708783 187.73680992 46.0708783 189.49975586 46.52539062 C190.51629745 46.7866272 191.53283905 47.04786377 192.58018494 47.3170166 C195 48 195 48 197 49 C194.51750582 60.43921069 191.86223471 71.81974406 188.99542236 83.16864014 C188.35312551 85.71160489 187.71405887 88.25536452 187.07568359 90.79931641 C185.49147413 97.10983413 183.90205047 103.41903588 182.31274414 109.72827148 C180.96205107 115.09113367 179.61343666 120.45451087 178.26739502 125.81854248 C177.64688668 128.28790038 177.02348413 130.75651443 176.39990234 133.22509766 C173.74496062 143.77753156 171.30767767 154.36633516 169 165 C169.71297241 165.17869629 170.42594482 165.35739258 171.16052246 165.54150391 C178.62203112 167.4372408 185.64230763 170.06300977 192.75 173 C193.92377197 173.483479 195.09754395 173.96695801 196.30688477 174.46508789 C219.51326152 184.13245458 242.41502038 195.00515345 262 211 C262.55349121 211.44811035 263.10698242 211.8962207 263.67724609 212.35791016 C289.03572723 233.00665961 307.372103 259.77421061 311 293 C313.19398523 326.14126974 305.64831258 363.35367358 284.625 389.9375 C283.1097595 391.64876812 281.56685269 393.33585907 280 395 C279.34741211 395.71978027 279.34741211 395.71978027 278.68164062 396.45410156 C263.05526666 413.63429692 243.8222063 422.1962374 222 429 C226.66825856 432.14922205 231.36659761 435.23586974 236.13330078 438.23461914 C242.77783121 442.43442992 249.01868059 446.87880421 255 452 C255.83144531 452.70898438 256.66289063 453.41796875 257.51953125 454.1484375 C278.87839671 472.84974827 292.93170815 497.54856646 296 526 C297.26540004 546.95039079 294.71463245 568.08836981 288 588 C287.73735352 588.81581543 287.47470703 589.63163086 287.20410156 590.47216797 C278.77766769 616.6220459 267.62604316 641.30592896 248 661 C246.77603516 662.23363281 246.77603516 662.23363281 245.52734375 663.4921875 C224.66684032 684.19148148 199.59697281 695.36943713 171 701 C169.91589844 701.2165625 168.83179688 701.433125 167.71484375 701.65625 C127.95159335 708.93458385 74.41322588 706.50663168 36 694 C35.88594881 694.66881604 35.77189762 695.33763208 35.65439034 696.02671528 C34.48489345 702.69210159 33.04497741 709.23649859 31.38623047 715.7956543 C31.13234558 716.81163193 30.87846069 717.82760956 30.61688232 718.87437439 C29.78699892 722.19183822 28.95214 725.50802747 28.1171875 728.82421875 C27.53681026 731.14012535 26.95674715 733.4561107 26.37698364 735.77217102 C24.85780467 741.83748876 23.33438733 747.90173403 21.81005859 753.96575928 C20.25230135 760.16597884 18.6985912 766.36721228 17.14453125 772.56835938 C14.10029466 784.71323033 11.05157561 796.85697116 8 809 C4.0806186 810.14267811 1.60145239 809.65832657 -2.38916016 808.67651367 C-3.02051376 808.52381516 -3.65186737 808.37111664 -4.30235291 808.21379089 C-6.38364378 807.70776456 -8.46129515 807.18825801 -10.5390625 806.66796875 C-11.98571976 806.31199423 -13.43253003 805.95664097 -14.87948608 805.60188293 C-17.90879237 804.85698082 -20.93638748 804.10557364 -23.96289062 803.34936523 C-27.84523697 802.37972069 -31.73102195 801.42479668 -35.61814308 800.4744978 C-38.60482372 799.74290652 -41.58974968 799.00436128 -44.57416916 798.26360512 C-46.0066407 797.90878954 -47.43960741 797.55596699 -48.87306595 797.20516014 C-50.87372552 796.71427044 -52.87188308 796.21426673 -54.86962891 795.71166992 C-56.00784088 795.42885666 -57.14605286 795.1460434 -58.3187561 794.85466003 C-61 794 -61 794 -63 792 C-62.81160259 790.01034546 -62.81160259 790.01034546 -62.18424988 787.52099609 C-61.95284805 786.57875183 -61.72144623 785.63650757 -61.48303223 784.66571045 C-61.08187195 783.11028534 -61.08187195 783.11028534 -60.67260742 781.5234375 C-60.40140579 780.43395813 -60.13020416 779.34447876 -59.8507843 778.22198486 C-58.94694716 774.60339345 -58.02636146 770.98928527 -57.10546875 767.375 C-56.47628218 764.87182233 -55.84806422 762.36840101 -55.22077942 759.86474609 C-53.90186771 754.61049753 -52.57574463 749.35815674 -51.24291992 744.10742188 C-49.36239165 736.69887549 -47.49807394 729.28631959 -45.63665998 721.87295151 C-44.19213776 716.12278468 -42.74261572 710.37387661 -41.29296875 704.625 C-40.98256338 703.39320007 -40.67215801 702.16140015 -40.35234642 700.89227295 C-39.47608827 697.41968797 -38.59645782 693.94797714 -37.71557617 690.4765625 C-37.45420868 689.43961243 -37.19284119 688.40266235 -36.92355347 687.33428955 C-36.56376152 685.92092316 -36.56376152 685.92092316 -36.19670105 684.47900391 C-35.88446484 683.24677597 -35.88446484 683.24677597 -35.56592083 681.98965454 C-35 680 -35 680 -34 678 C-34.61713867 677.90058105 -35.23427734 677.80116211 -35.87011719 677.69873047 C-44.11676204 676.29219765 -52.16674436 674.25092584 -60.25 672.125 C-61.56631286 671.78219327 -62.88271887 671.43974403 -64.19921875 671.09765625 C-73.142771 668.76928014 -82.07255233 666.3892829 -91 664 C-91.12918823 665.49684326 -91.12918823 665.49684326 -91.26098633 667.02392578 C-92.14164714 674.01209967 -94.08903074 680.80306569 -95.82421875 687.6171875 C-96.2124686 689.157602 -96.60022 690.6981422 -96.98750305 692.23880005 C-98.00868047 696.29697851 -99.03506973 700.35381822 -100.06304932 704.41027832 C-101.68656905 710.81834926 -103.30478964 717.22775634 -104.91894913 723.63819122 C-105.31384767 725.20640537 -105.70907783 726.77453605 -106.10464096 728.3425827 C-108.9120546 739.48076614 -111.60423492 750.63598035 -114.07707214 761.85421753 C-115.38572324 767.70807855 -116.97352197 773.35280455 -119 779 C-120.20483284 778.70265709 -120.20483284 778.70265709 -121.43400574 778.39930725 C-129.01099512 776.52957443 -136.5882431 774.66089401 -144.16578197 772.79338932 C-148.06126663 771.83329753 -151.9566508 770.87280196 -155.85180664 769.91137695 C-159.61222989 768.9832233 -163.37291531 768.05613902 -167.13378334 767.12978935 C-168.56715558 766.77653353 -170.00043362 766.42289528 -171.43361473 766.06886482 C-173.44401902 765.57231617 -175.45475669 765.07713958 -177.46557617 764.58227539 C-178.60919113 764.30025772 -179.75280609 764.01824005 -180.93107605 763.72767639 C-183.61269367 763.09183469 -186.29368505 762.51899253 -189 762 C-186.74187939 748.68078703 -183.54401633 735.65438768 -180.23828125 722.5625 C-179.68164856 720.34344696 -179.12543744 718.12428814 -178.56962585 715.9050293 C-177.11892226 710.11735035 -175.66256771 704.33110846 -174.20495605 698.54516602 C-172.71324172 692.61952413 -171.22698058 686.69251495 -169.74023438 680.765625 C-166.83210209 669.17575296 -163.91798687 657.58739456 -161 646 C-166.74812692 643.49715399 -166.74812692 643.49715399 -172.75 641.75390625 C-173.60722656 641.55603516 -174.46445312 641.35816406 -175.34765625 641.15429688 C-176.22292969 640.95900391 -177.09820312 640.76371094 -178 640.5625 C-183.94144209 639.21547076 -189.84681743 637.79133092 -195.72900391 636.20288086 C-204.51476616 633.84482509 -213.32988056 631.60668108 -222.1484375 629.375 C-223.85748301 628.94193506 -225.56651802 628.50882871 -227.27554321 628.07568359 C-230.8335979 627.17416089 -234.3918344 626.27336012 -237.95019531 625.37304688 C-242.46054236 624.23177316 -246.97033793 623.08833676 -251.47998619 621.94430542 C-255.00266138 621.05098143 -258.52567743 620.15900748 -262.04878616 619.26739502 C-263.70950234 618.84690934 -265.3701081 618.42598727 -267.03059006 618.00457764 C-269.37209358 617.41051162 -271.71409357 616.81843511 -274.05615234 616.2265625 C-274.79616171 616.03818817 -275.53617107 615.84981384 -276.29860497 615.6557312 C-280.15048134 614.68325734 -284.00679877 613.76833022 -287.88995361 612.92871094 C-288.67854578 612.75503998 -289.46713795 612.58136902 -290.27962685 612.4024353 C-291.78572352 612.07365621 -293.2942499 611.75576239 -294.8052578 611.4503479 C-296.83096313 611.00537109 -296.83096313 611.00537109 -300 610 C-301.45312332 605.64063003 -299.45683649 602.72067187 -297.6875 598.71484375 C-297.32679916 597.87800552 -296.96609833 597.0411673 -296.59446716 596.17897034 C-295.40563851 593.4276649 -294.20303696 590.68261889 -293 587.9375 C-292.17903756 586.04589014 -291.35881185 584.15396038 -290.53930664 582.26171875 C-288.0403821 576.50157611 -285.5219997 570.75006919 -283 565 C-282.22898415 563.23975475 -281.45798741 561.47950112 -280.68701172 559.71923828 C-268.80637905 532.61275809 -268.80637905 532.61275809 -267 529 C-256.46928701 530.96644947 -246.10793803 533.62257627 -235.71142578 536.18920898 C-233.25076513 536.7959113 -230.7894668 537.39997434 -228.328125 538.00390625 C-227.20763763 538.28204918 -227.20763763 538.28204918 -226.06451416 538.56581116 C-215.62545439 541.12613214 -203.74786918 543.68625702 -194 538 C-182.49237548 529.71513918 -180.58188044 513.84022881 -177.5 500.875 C-177.04945924 499.02963441 -176.59764156 497.1845801 -176.14453125 495.33984375 C-174.29506604 487.76993382 -172.48830751 480.19085154 -170.77294922 472.58935547 C-165.5818735 449.62333502 -159.75909195 426.81158448 -154.02831268 403.97571945 C-152.50107672 397.88796232 -150.97646624 391.79954775 -149.45166016 385.71118164 C-147.63184868 378.44555552 -145.81179222 371.17999121 -143.990448 363.91474915 C-140.91728382 351.6560117 -137.84703595 339.39656856 -134.78906631 327.1340313 C-134.27265588 325.0633484 -133.75598102 322.99273165 -133.23922729 320.9221344 C-131.67288809 314.64521152 -130.1090435 308.36768087 -128.54931641 302.08911133 C-125.39936781 289.43413949 -122.17708817 276.80181808 -118.86919022 264.18741417 C-117.65910148 259.56410567 -116.45944317 254.93807614 -115.25962639 250.31209278 C-114.30026054 246.61833002 -113.33312456 242.92699768 -112.34637451 239.240448 C-104.46209643 213.70631594 -104.46209643 213.70631594 -108.6328125 188.19921875 C-120.55673085 169.01874437 -144.50381562 165.86350458 -164.96191406 161.06298828 C-172.62239077 159.28877409 -180.30468879 157.61595019 -188 156 C-187.37633168 147.58251579 -185.28839061 139.6073452 -183.18359375 131.46484375 C-182.80334936 129.97568542 -182.42364319 128.48638956 -182.04444885 126.9969635 C-181.05191075 123.10437863 -180.05213974 119.21368802 -179.05078125 115.32336426 C-178.02747246 111.34235901 -177.01111137 107.35958123 -175.99414062 103.37695312 C-174.00283746 95.58289743 -172.00387928 87.79083177 -170 80 C-157.95364521 82.79891359 -145.94483017 85.72989347 -133.94921875 88.73828125 C-132.15731896 89.18672507 -130.36539225 89.63506138 -128.57344055 90.08329773 C-123.89055527 91.25496341 -119.20802378 92.42803673 -114.52557373 93.60144043 C-110.77474187 94.54118518 -107.02369812 95.48008222 -103.27262688 96.41887093 C-100.50399476 97.11179049 -97.73541092 97.80490268 -94.96682739 98.49801636 C-91.35021788 99.40334509 -87.73339896 100.30783066 -84.11642456 101.21170044 C-69.68626294 104.81931619 -69.68626294 104.81931619 -62.55155087 106.64534855 C-60.6046174 107.14356347 -58.65703107 107.63922492 -56.70942688 108.1348114 C-54.44655863 108.71127721 -52.18484135 109.29229538 -49.92472839 109.87947083 C-42.67102466 111.7215358 -35.41233082 112.97702375 -28 114 C-19.84405169 81.90701049 -19.84405169 81.90701049 -12.24121094 49.68066406 C-8.46811924 33.04905369 -4.17390496 16.53460867 0 0 Z " fill="#FEFEFE" transform="translate(613,223)"/>
<path d="M0 0 C54.72652695 6.69368595 128.69685298 24.57338831 166 68 C174.54932482 79.44795304 180.42280671 92.20948907 180.3125 106.625 C180.30686035 107.40842773 180.3012207 108.19185547 180.29541016 108.99902344 C179.96301767 125.17106959 174.97143872 140.90087593 164 153 C163.42894531 153.67417969 162.85789062 154.34835937 162.26953125 155.04296875 C154.22126586 163.91493721 143.69888473 168.75910518 132.5 172.375 C131.76612061 172.6136377 131.03224121 172.85227539 130.27612305 173.09814453 C116.93030793 177.11277472 103.431443 177.37602931 89.625 177.3125 C88.2954277 177.30827026 88.2954277 177.30827026 86.93899536 177.30395508 C72.7498268 177.23630936 58.97775145 176.61021877 45 174 C44.3218927 173.87369202 43.6437854 173.74738403 42.94512939 173.61724854 C16.01444548 168.57140426 -10.59245654 162.29895839 -37 155 C-37.97289446 151.23014602 -37.94647149 148.67250227 -36.99047852 144.91085815 C-36.74113052 143.9080632 -36.49178253 142.90526825 -36.23487854 141.87208557 C-35.95240768 140.78233932 -35.66993683 139.69259308 -35.37890625 138.56982422 C-35.08793564 137.41277481 -34.79696503 136.2557254 -34.49717712 135.06361389 C-33.69651227 131.88868942 -32.88643406 128.71634795 -32.07211304 125.54490423 C-31.21499277 122.19755051 -30.36989874 118.84716256 -29.5234375 115.49710083 C-27.91118931 109.12402467 -26.28799233 102.75378948 -24.66095161 96.38447583 C-22.83767874 89.24463522 -21.02710102 82.10159689 -19.21742058 74.95830131 C-12.88158564 49.95403284 -6.49442694 24.96359237 0 0 Z " fill="#F7931A" transform="translate(584,648)"/>
<path d="M0 0 C1.59764998 0.15170848 3.19508224 0.30571094 4.79241943 0.4606781 C6.12680872 0.58894816 6.12680872 0.58894816 7.48815536 0.71980953 C10.47960918 1.0534993 13.34218204 1.6342489 16.265625 2.34765625 C17.38727051 2.61868164 18.50891602 2.88970703 19.66455078 3.16894531 C20.84774902 3.46381836 22.03094727 3.75869141 23.25 4.0625 C25.13887939 4.52994629 25.13887939 4.52994629 27.06591797 5.00683594 C29.71628171 5.66512293 32.36492132 6.32991269 35.01269531 6.99853516 C37.61887989 7.65583596 40.22729328 8.29894004 42.83886719 8.93505859 C73.57770171 16.42313084 104.79790952 26.91758197 129 48 C130.03833984 48.87011719 130.03833984 48.87011719 131.09765625 49.7578125 C142.06616535 59.70192781 148.89305438 74.29594332 150.40234375 88.890625 C150.88295479 107.57678239 144.62425771 126.06526605 131.75 139.6875 C125.0589886 146.07891388 117.72672454 149.90518953 109.1875 153.25 C108.26505493 153.61967896 108.26505493 153.61967896 107.32397461 153.99682617 C95.00161778 158.56305882 81.83066392 158.40790637 68.875 158.375 C67.99261658 158.3737915 67.11023315 158.37258301 66.20111084 158.37133789 C32.61953972 158.24709358 -2.18516265 150.92313443 -34 140 C-33.11767744 134.01241382 -31.71088384 128.15115288 -30.34326172 122.26025391 C-30.07733656 121.1121908 -29.8114114 119.96412769 -29.5374279 118.7812748 C-26.66009374 106.43284533 -23.5965813 94.13284917 -20.5078125 81.8359375 C-19.91083269 79.45176323 -19.31406581 77.06753564 -18.71749878 74.68325806 C-17.17105047 68.50498453 -15.62177439 62.32742377 -14.07183838 56.15002441 C-12.48102587 49.80748888 -10.89298522 43.46425941 -9.3046875 37.12109375 C-6.20578533 24.74672831 -3.10397975 12.3730927 0 0 Z " fill="#F7931A" transform="translate(636,437)"/>
</svg>
