<svg xmlns="http://www.w3.org/2000/svg" viewBox="0 0 32 32" fill="none">
  <circle cx="16" cy="16" r="16" fill="#9945FF"/>
  <path d="M9.5 20.6a.6.6 0 01.4-.2h14.5a.3.3 0 01.2.5l-2.8 2.8a.6.6 0 01-.4.2H6.9a.3.3 0 01-.2-.5l2.8-2.8z" fill="url(#a)"/>
  <path d="M9.5 8.2a.6.6 0 01.4-.2h14.5a.3.3 0 01.2.5l-2.8 2.8a.6.6 0 01-.4.2H6.9a.3.3 0 01-.2-.5l2.8-2.8z" fill="url(#b)"/>
  <path d="M21.8 14.4a.6.6 0 00-.4-.2H6.9a.3.3 0 00-.2.5l2.8 2.8a.6.6 0 00.4.2h14.5a.3.3 0 00.2-.5l-2.8-2.8z" fill="url(#c)"/>
  <defs>
    <linearGradient id="a" x1="6.7" y1="24.2" x2="24.6" y2="7.8" gradientUnits="userSpaceOnUse">
      <stop stop-color="#00FFA3"/>
      <stop offset="1" stop-color="#DC1FFF"/>
    </linearGradient>
    <linearGradient id="b" x1="6.7" y1="24.2" x2="24.6" y2="7.8" gradientUnits="userSpaceOnUse">
      <stop stop-color="#00FFA3"/>
      <stop offset="1" stop-color="#DC1FFF"/>
    </linearGradient>
    <linearGradient id="c" x1="6.7" y1="24.2" x2="24.6" y2="7.8" gradientUnits="userSpaceOnUse">
      <stop stop-color="#00FFA3"/>
      <stop offset="1" stop-color="#DC1FFF"/>
    </linearGradient>
  </defs>
</svg>
