<?xml version="1.0" encoding="UTF-8"?>
<svg version="1.1" xmlns="http://www.w3.org/2000/svg" width="4000" height="4000">
<path d="M0 0 C2.58598391 1.53769795 5.18150111 3.05750668 7.78125 4.57177734 C40.99136731 24.03665204 72.40136804 46.78192607 102.07666016 71.25341797 C103.65155572 72.54725941 105.23742063 73.82771765 106.82421875 75.10693359 C112.47268946 79.66395087 117.89207601 84.4095787 123.234375 89.32177734 C125.37066749 91.27786111 127.52905657 93.19568557 129.71875 95.09130859 C140.96361244 104.90508846 151.57300158 115.28803967 162.11010742 125.85229492 C164.60286995 128.35044827 167.10097475 130.84317058 169.59960938 133.33544922 C171.20865428 134.94515451 172.81738918 136.55516975 174.42578125 138.16552734 C175.52911552 139.26582527 175.52911552 139.26582527 176.65473938 140.38835144 C180.69191447 144.44366723 184.56312971 148.58953408 188.29426575 152.92871094 C190.3601601 155.32542058 192.50929229 157.64224495 194.65625 159.96630859 C198.74562787 164.45043788 202.62744021 169.05648097 206.4375 173.77880859 C208.53159348 176.34756327 210.66338341 178.87453201 212.81835938 181.3918457 C218.25213323 187.74356357 223.43715612 194.24282864 228.47021484 200.91748047 C229.83486208 202.72481216 231.20819872 204.52532673 232.58203125 206.32568359 C244.24190931 221.66937327 255.2852747 237.4917925 265.78125 253.65380859 C266.23145508 254.34700195 266.68166016 255.04019531 267.14550781 255.75439453 C313.70977396 327.78698445 348.55263694 407.08050681 371.78125 499.65380859 C371.96322937 500.39763794 372.14520874 501.14146729 372.33270264 501.90783691 C393.60530686 589.20770983 398.94119716 680.54055408 317.78125 1024.65380859 C317.30719727 1025.66894531 316.83314453 1026.68408203 316.34472656 1027.72998047 C284.31724963 1096.23497789 241.16767234 1160.48038123 190.01953125 1216.19677734 C188.02807664 1218.38285928 186.08452487 1220.59963465 184.15625 1222.84130859 C181.24637695 1226.19517636 178.16242443 1229.32026086 174.96875 1232.40380859 C173.07440967 1234.35227294 171.30174791 1236.34362342 169.52734375 1238.39990234 C165.80390879 1242.68487852 161.86818306 1246.71516059 157.84375 1250.71630859 C157.17923828 1251.3846875 156.51472656 1252.05306641 155.83007812 1252.74169922 C151.88241385 1256.68170556 147.83052974 1260.43691205 143.58959961 1264.05981445 C141.7407401 1265.68951659 140.00631429 1267.39429482 138.28125 1269.15380859 C135.29252663 1272.18975784 132.16418521 1274.99889518 128.9375 1277.77880859 C126.58162042 1279.82739953 124.2761754 1281.92583861 121.96875 1284.02880859 C117.70244411 1287.87431041 113.329557 1291.55112125 108.86328125 1295.16162109 C106.64205631 1296.95774468 104.43224623 1298.76389395 102.23046875 1300.58349609 C91.66744542 1309.28595617 80.79546123 1317.53241787 69.78125 1325.65380859 C68.66411621 1326.48114502 68.66411621 1326.48114502 67.52441406 1327.32519531 C31.68983585 1353.81057233 -6.60041447 1376.77374299 -46.4074707 1396.74493408 C-48.18741268 1397.63808397 -49.96579162 1398.53434661 -51.74414062 1399.43066406 C-126.86627632 1437.10733676 -208.93561561 1461.48518768 -649.71069336 1439.49285889 C-672.26883409 1431.94621329 -694.49857457 1423.34832134 -716.21875 1413.65380859 C-717.25257813 1413.19329102 -718.28640625 1412.73277344 -719.3515625 1412.25830078 C-745.27672558 1400.64134349 -770.70908332 1388.03084609 -795.21875 1373.65380859 C-796.20085449 1373.08227051 -797.18295898 1372.51073242 -798.19482422 1371.921875 C-814.97610488 1362.13346597 -831.18638841 1351.61093068 -847.21875 1340.65380859 C-848.04342773 1340.09064941 -848.86810547 1339.52749023 -849.71777344 1338.94726562 C-861.86916216 1330.60740306 -873.5579751 1321.66159035 -885.21875 1312.65380859 C-885.90130859 1312.12867676 -886.58386719 1311.60354492 -887.28710938 1311.0625 C-894.42775816 1305.56272051 -901.37795907 1299.88877366 -908.18798828 1293.98388672 C-911.57846521 1291.04490307 -915.01740811 1288.1957736 -918.53125 1285.40380859 C-925.73694522 1279.55248781 -932.36494114 1273.07229839 -939.08300781 1266.67626953 C-941.70118228 1264.19696486 -944.34674905 1261.74846535 -946.99511719 1259.30151367 C-957.30933388 1249.7596373 -967.67201236 1240.08668172 -976.75 1229.34130859 C-978.33137969 1227.52440427 -980.00072196 1225.84169579 -981.71875 1224.15380859 C-985.4306219 1220.49110056 -988.82886518 1216.6140143 -992.21875 1212.65380859 C-993.12614364 1211.59898477 -994.03370908 1210.54430873 -994.94140625 1209.48974609 C-997.53079406 1206.47871142 -1000.11131074 1203.46018953 -1002.68994141 1200.43994141 C-1004.11502954 1198.77498695 -1005.54678478 1197.11604777 -1006.98046875 1195.45849609 C-1013.83822849 1187.49275222 -1020.23225404 1179.21609455 -1026.56591797 1170.83007812 C-1028.17799864 1168.70746555 -1029.8061963 1166.59848146 -1031.44140625 1164.49365234 C-1056.84917309 1131.73710623 -1079.34785662 1096.36595761 -1098.62841797 1059.66992188 C-1100.24636887 1056.60142856 -1101.88957468 1053.54740282 -1103.53515625 1050.49365234 C-1141.97585097 978.52403768 -1167.4755534 899.14131526 -1192.21875 701.65380859 C-1192.24066406 700.48060059 -1192.26257812 699.30739258 -1192.28515625 698.09863281 C-1193.62451034 613.55190582 -1181.75292958 528.25543005 -1155.21875 445.65380859 C-1154.98885376 444.94113831 -1154.75895752 444.22846802 -1154.52209473 443.49420166 C-1141.95588197 404.69101594 -1126.77942512 366.99523368 -1108.22705078 330.65136719 C-1107.12060221 328.45936665 -1106.04123996 326.25524766 -1104.96484375 324.04833984 C-1087.3425656 288.04587472 -1065.67633672 254.11160219 -1042.21875 221.65380859 C-1041.67009277 220.89261719 -1041.12143555 220.13142578 -1040.55615234 219.34716797 C-1032.90024799 208.75365836 -1024.97892777 198.44387639 -1016.64257812 188.37744141 C-1014.63034527 185.94150795 -1012.6456725 183.48338384 -1010.65625 181.02880859 C-1002.67350864 171.29482599 -994.45671719 161.78892368 -985.88671875 152.56787109 C-983.91824464 150.4178247 -982.00789113 148.24885323 -980.11035156 146.03833008 C-976.02322336 141.36238368 -971.68080857 136.97181795 -967.28515625 132.58740234 C-966.44838852 131.74967789 -965.61162079 130.91195343 -964.74949646 130.04884338 C-962.99006896 128.28873924 -961.22939347 126.52988182 -959.4675293 124.7722168 C-956.78905589 122.09909888 -954.11596127 119.42068608 -951.44335938 116.74169922 C-949.72427885 115.02327956 -948.00488811 113.30517017 -946.28515625 111.58740234 C-945.49532852 110.79555038 -944.70550079 110.00369843 -943.89173889 109.18785095 C-939.7007919 105.01434106 -935.43386283 100.99397958 -930.94488525 97.14183044 C-928.36829489 94.92067034 -925.89547641 92.59744466 -923.40625 90.27880859 C-918.83442543 86.05982606 -914.14620156 82.04233392 -909.296875 78.14208984 C-906.99734241 76.28320373 -904.71961452 74.40766084 -902.453125 72.50927734 C-891.66217641 63.49020766 -880.54396424 54.98909324 -869.21875 46.65380859 C-868.49139648 46.11433594 -867.76404297 45.57486328 -867.01464844 45.01904297 C-839.40934841 24.56029269 -810.29732117 6.23497677 -780.21875 -10.34619141 C-779.16365234 -10.93126465 -778.10855469 -11.51633789 -777.02148438 -12.11914062 C-740.2231773 -32.45878718 -701.86940993 -49.35644849 -662.21875 -63.34619141 C-661.238992 -63.69263702 -661.238992 -63.69263702 -660.23944092 -64.04608154 C-579.95656035 -92.37599978 -496.11643338 -106.40291408 0 0 Z M-466.21875 82.65380859 C-466.96137085 82.73866516 -467.7039917 82.82352173 -468.46911621 82.91094971 C-511.70037782 87.89561116 -554.03183392 97.59959164 -595.21875 111.65380859 C-596.28287109 112.01587402 -597.34699219 112.37793945 -598.44335938 112.75097656 C-645.92791033 129.045413 -691.4940209 151.75193302 -733.21875 179.65380859 C-733.86972656 180.08870605 -734.52070312 180.52360352 -735.19140625 180.97167969 C-761.17804538 198.41450083 -785.60090403 217.82810426 -808.53588867 239.11450195 C-809.82354765 240.29231856 -811.12278163 241.45749222 -812.42700195 242.61694336 C-818.7974245 248.28336877 -824.89135779 254.17516958 -830.90625 260.21630859 C-831.80408203 261.11027344 -832.70191406 262.00423828 -833.62695312 262.92529297 C-838.15389842 267.45887115 -842.54641581 272.04675597 -846.71899414 276.90893555 C-848.78668692 279.31456802 -850.94141836 281.63642772 -853.09375 283.96630859 C-857.13154322 288.39877333 -860.99182434 292.93123036 -864.75390625 297.59912109 C-866.55960175 299.83692439 -868.37854312 302.05862759 -870.21484375 304.27099609 C-878.33475339 314.09001938 -885.90753657 324.22048574 -893.21875 334.65380859 C-893.76031738 335.4262793 -894.30188477 336.19875 -894.85986328 336.99462891 C-948.35068203 413.60072574 -983.62199791 500.73805752 -1004.78125 662.84130859 C-1004.84602539 664.43942383 -1004.84602539 664.43942383 -1004.91210938 666.06982422 C-1005.52021152 682.44997242 -1005.27267664 698.78625434 -1004.46875 715.15380859 C-1004.42584839 716.03232483 -1004.38294678 716.91084106 -1004.33874512 717.815979 C-1000.23188159 799.51100009 -978.95255615 878.46054479 -927.21875 983.65380859 C-926.72761719 984.52021973 -926.23648438 985.38663086 -925.73046875 986.27929688 C-907.964368 1017.53638692 -887.19055915 1047.27122117 -863.81640625 1074.58740234 C-861.49222258 1077.31151845 -859.25951416 1080.10050852 -857.03125 1082.90380859 C-846.32271608 1095.98578721 -834.14512612 1107.82142349 -822.21875 1119.77880859 C-821.6346637 1120.36557373 -821.05057739 1120.95233887 -820.4487915 1121.55688477 C-814.21569089 1127.81166383 -807.96705518 1133.94961619 -801.21875 1139.65380859 C-800.05030943 1140.67522039 -798.88362877 1141.69864906 -797.71875 1142.72412109 C-767.88648721 1168.81254489 -735.63872855 1191.97131377 -701.21875 1211.65380859 C-700.47834473 1212.07774902 -699.73793945 1212.50168945 -698.97509766 1212.93847656 C-693.75822582 1215.9096223 -688.49765273 1218.79468173 -683.21875 1221.65380859 C-682.05134277 1222.29286133 -682.05134277 1222.29286133 -680.86035156 1222.94482422 C-615.47254983 1258.63974227 -542.83425585 1279.19199626 -469.21875 1288.65380859 C-468.510672 1288.74682251 -467.80259399 1288.83983643 -467.07305908 1288.93566895 C-422.76765608 1294.70881729 -374.49221587 1294.43687627 -330.21875 1288.65380859 C-328.78198801 1288.4743998 -327.34513566 1288.29571343 -325.90820312 1288.11767578 C-246.57088571 1278.18762163 -169.73603416 1253.24975552 -100.21875 1213.65380859 C-99.42291504 1213.20134766 -98.62708008 1212.74888672 -97.80712891 1212.28271484 C-68.70454558 1195.59392823 -40.96956102 1176.12769206 -15.21875 1154.65380859 C-14.63367676 1154.16783203 -14.04860352 1153.68185547 -13.44580078 1153.18115234 C-6.80184243 1147.65361998 -0.30436934 1141.99825886 6.05078125 1136.13818359 C7.47453574 1134.84275032 8.90272137 1133.55105093 10.37231445 1132.30786133 C17.06154864 1126.62555084 23.19885819 1120.38683835 29.39038086 1114.17504883 C31.3392187 1112.22085236 33.29334272 1110.27205712 35.24804688 1108.32373047 C41.30625659 1102.26871025 47.24865489 1096.19942855 52.78125 1089.65380859 C54.1944855 1088.10899599 55.61065409 1086.56685535 57.03125 1085.02880859 C61.65603873 1079.90850679 65.87972942 1074.52367744 70.10546875 1069.07568359 C72.37553184 1066.15415508 74.71896803 1063.30371043 77.09375 1060.46630859 C102.67184518 1029.26466057 124.06990231 994.26290449 142.02441406 958.18261719 C143.170723 955.88012283 144.32343116 953.58080004 145.48339844 951.28515625 C165.09170166 912.43081465 179.50370859 870.90984076 189.78125 828.65380859 C190.05662598 827.52217285 190.33200195 826.39053711 190.61572266 825.22460938 C210.89450461 740.62578482 212.06180593 650.9733822 145.78125 420.65380859 C145.32927246 419.70602539 144.87729492 418.75824219 144.41162109 417.78173828 C137.30296747 402.94154792 129.23557735 388.76351366 120.78125 374.65380859 C119.8448924 373.07317401 118.90868315 371.49245154 117.97265625 369.91162109 C97.75256543 336.03243185 73.43639637 304.6934409 46.78125 275.65380859 C46.29495117 275.12239258 45.80865234 274.59097656 45.30761719 274.04345703 C38.32525591 266.42905326 31.19839858 258.97241286 23.90625 251.65380859 C23.21724609 250.9602124 22.52824219 250.26661621 21.81835938 249.55200195 C17.88473531 245.63020905 13.84434845 241.89417738 9.63867188 238.26611328 C7.0241419 235.99661329 4.50215015 233.63859111 1.96875 231.27880859 C-2.62299681 227.04194443 -7.32829114 222.99974977 -12.19921875 219.08349609 C-14.4254216 217.29216599 -16.63363116 215.48642557 -18.83203125 213.66162109 C-33.38052674 201.62458207 -48.72488352 190.89819418 -64.40625 180.40380859 C-65.02929016 179.98573944 -65.65233032 179.56767029 -66.29425049 179.13693237 C-143.34731322 127.51734558 -232.33437995 95.29656058 -354.21875 80.65380859 C-355.35860352 80.5580957 -356.49845703 80.46238281 -357.67285156 80.36376953 C-371.04509892 79.37650914 -384.44121688 79.4101548 -397.84375 79.40380859 C-399.12775696 79.40313385 -400.41176392 79.40245911 -401.73468018 79.40176392 C-423.36861362 79.41974877 -444.72722748 80.16626948 -466.21875 82.65380859 Z " fill="#FFFFFF" transform="translate(2399.21875,729.34619140625)"/>
<path d="M0 0 C4.96376613 0.00166014 9.92752833 -0.00252982 14.89129312 -0.00590918 C23.55983262 -0.01102176 32.22836655 -0.01248766 40.8969074 -0.01145306 C53.78889377 -0.00991822 66.68087405 -0.01411167 79.57285923 -0.01932769 C103.94806695 -0.02896513 128.32327259 -0.03181123 152.69848199 -0.03238475 C155.38058424 -0.0324495 158.06268648 -0.03251744 160.74478872 -0.03258816 C161.41050206 -0.03260516 162.0762154 -0.03262216 162.76210186 -0.03263968 C177.56744718 -0.03304955 192.37279207 -0.03524401 207.17813715 -0.037744 C213.29001149 -0.03877248 219.40188583 -0.03976257 225.51376016 -0.04076025 C226.5269769 -0.04092613 226.5269769 -0.04092613 227.56066265 -0.04109537 C266.22804709 -0.04741255 304.89543124 -0.05154524 343.56281622 -0.05108681 C345.00743655 -0.05107104 346.45205688 -0.0510553 347.89667722 -0.05103961 C354.41781041 -0.05096623 360.93894361 -0.05087806 367.4600768 -0.05078572 C370.36751823 -0.0507446 373.27495965 -0.05070445 376.18240108 -0.05066441 C377.6376218 -0.05064401 379.09284251 -0.05062299 380.54806323 -0.05060135 C426.52869728 -0.04992163 472.50932361 -0.05723224 518.4899555 -0.07114163 C530.07161543 -0.0746433 541.65327537 -0.07811305 553.23493536 -0.08140603 C553.94828367 -0.0816089 554.66163199 -0.08181178 555.39659692 -0.0820208 C577.42324555 -0.08824697 599.44989355 -0.09200352 621.47654302 -0.09326401 C622.16926555 -0.09330397 622.86198808 -0.09334392 623.5757022 -0.09338508 C638.79115604 -0.09423882 654.00660985 -0.09449939 669.22206371 -0.0942147 C674.66801511 -0.09411824 680.11396651 -0.09406618 685.55991791 -0.09403597 C686.91447185 -0.09402806 688.26902579 -0.09401785 689.62357972 -0.09400535 C711.7632458 -0.09382448 733.90290467 -0.10004483 756.04256877 -0.10895636 C777.65176386 -0.11747386 799.26094944 -0.11839095 820.87014528 -0.11184704 C833.67124419 -0.1081785 846.47231405 -0.10990205 859.27340982 -0.11978938 C867.86515383 -0.12585889 876.45687715 -0.12441803 885.04862027 -0.11731888 C889.91675258 -0.11349506 894.78482935 -0.11248899 899.65295739 -0.12077623 C920.20931781 -0.15337575 940.71491709 0.17295289 961.25449713 1.04465255 C962.69488178 1.1049406 962.69488178 1.1049406 964.16436512 1.16644659 C1014.01752571 3.29727877 1063.68668498 9.63529201 1112.47042425 20.13466892 C1113.22871527 20.2964664 1113.98700628 20.45826389 1114.76827581 20.62496433 C1168.94817026 32.19804047 1222.47579987 48.39668982 1273.47042425 70.13466892 C1274.72954716 70.66628484 1275.98882873 71.1975251 1277.24825628 71.72841892 C1318.80224428 89.28482069 1358.93731621 109.68636917 1397.47042425 133.13466892 C1398.43335394 133.71877536 1399.39628362 134.30288181 1400.388393 134.90468845 C1436.17456006 156.65963345 1470.25783743 181.1253543 1502.65450628 207.6507822 C1504.23342146 208.94100086 1505.81821052 210.2240248 1507.404018 211.50576267 C1518.49717261 220.48907509 1529.22359923 229.89204029 1539.700893 239.58388767 C1542.30749432 241.98460792 1544.94576249 244.34420334 1547.59542425 246.69716892 C1551.9290627 250.57938669 1556.01954582 254.66418391 1560.107143 258.80263767 C1562.14914032 260.81763337 1564.22700711 262.7110604 1566.40792425 264.57216892 C1573.69173136 270.82385761 1580.37283289 277.74134059 1586.59542425 285.04091892 C1588.95388894 287.67453782 1591.45508047 290.15271652 1593.97042425 292.63466892 C1597.69640845 296.31613942 1601.26898669 300.06762036 1604.669643 304.05263767 C1606.84366627 306.5662047 1609.09432913 309.0024312 1611.34542425 311.44716892 C1615.41902334 315.91340406 1619.27870128 320.50388271 1623.07198675 325.20888767 C1625.24278878 327.8569833 1627.46337048 330.44613314 1629.71261175 333.0270029 C1635.81714856 340.04188271 1641.51860627 347.29902156 1647.11886175 354.72060642 C1649.36184392 357.6906151 1651.63727659 360.63032042 1653.94698675 363.54873142 C1661.13488212 372.63830776 1667.88675118 381.90965645 1674.33761175 391.53701267 C1676.62244429 394.93334533 1678.99782206 398.24873487 1681.419643 401.54873142 C1685.24981041 406.78678103 1688.87298599 412.13139534 1692.40792425 417.57216892 C1693.04198187 418.5473447 1693.67603948 419.52252048 1694.32931097 420.52724704 C1738.75256821 489.31024899 1774.41218849 563.21969052 1840.47042425 848.13466892 C1840.56807073 849.37474704 1840.66571722 850.61482517 1840.76632269 851.89248142 C1842.82694971 878.9234676 1843.52969477 905.98359644 1843.64565618 933.08639011 C1843.65368036 934.83490145 1843.66466767 936.58340234 1843.67898138 938.33187351 C1843.91399119 970.21952451 1837.46097364 997.11731763 1815.0368305 1020.69326267 C1796.549163 1038.20949279 1771.55097306 1047.79155904 1746.107143 1047.1129404 C1720.80250214 1045.88992131 1697.28707937 1034.89131918 1679.90938909 1016.48086032 C1660.68950256 994.93014521 1655.42001975 969.28137737 1655.2707134 941.13843593 C1655.25090417 937.55457581 1655.21386842 933.97086399 1655.18038519 930.38711032 C1655.17382595 929.6402783 1655.16726671 928.89344629 1655.16050871 928.12398299 C1654.92026916 901.03396358 1654.50915516 874.08079618 1651.47042425 847.13466892 C1651.2984547 845.56404124 1651.12658262 843.9934029 1650.95479925 842.42275485 C1647.15433512 808.14864896 1641.09876677 774.32683303 1632.45577581 740.94130954 C1631.82294603 738.49654194 1631.1967213 736.05004976 1630.57882269 733.60146579 C1622.25132987 700.72335999 1611.01452259 668.22278699 1597.47042425 637.13466892 C1596.98960394 636.01801852 1596.50878362 634.90136813 1596.013393 633.75087985 C1584.00542106 605.9572342 1570.76328518 578.69355581 1555.06856878 552.78408298 C1553.52358272 550.22279537 1552.00648689 547.64713828 1550.497768 545.06435642 C1532.45846225 514.32029025 1511.52968713 485.42306294 1488.91915472 457.90371188 C1487.60664393 456.30100659 1486.30544176 454.68905673 1485.0055805 453.07607517 C1480.44811631 447.42930495 1475.70324063 442.01048305 1470.79073675 436.66982517 C1468.89761222 434.60141133 1467.04790721 432.51061015 1465.22042425 430.38466892 C1455.6099191 419.3886676 1445.40612788 408.96916754 1435.09542425 398.63466892 C1434.57972875 398.11638522 1434.06403326 397.59810153 1433.53271063 397.06411227 C1428.23509746 391.74553578 1422.9122573 386.50808103 1417.20479925 381.62392673 C1414.6218778 379.40604654 1412.14909175 377.08011305 1409.65792425 374.75966892 C1405.01003883 370.46591511 1400.22626077 366.39935051 1395.294643 362.43154392 C1392.808157 360.40933953 1390.36756626 358.34305013 1387.93844183 356.25258884 C1380.42520873 349.80099573 1372.62938071 343.76149655 1364.71065862 337.8172861 C1363.23548667 336.70929949 1361.76275931 335.59804945 1360.29268987 334.48330173 C1325.6405143 308.22272283 1288.24936429 285.72580366 1249.47042425 266.13466892 C1248.33701605 265.55990817 1247.20360784 264.98514743 1246.03585394 264.3929697 C1216.18203104 249.31011326 1185.17830327 236.76783818 1153.47042425 226.13466892 C1152.28400335 225.73473727 1151.09758245 225.33480563 1149.87520941 224.92275485 C1081.81015741 202.21942442 1008.58351892 188.91800655 936.72238596 189.00324115 C934.99279993 189.00158681 933.26321427 188.99949841 931.53362922 188.99702105 C926.81033308 188.99150506 922.08705525 188.99211741 917.36375694 188.99379864 C912.21345333 188.99453443 907.0631547 188.98949584 901.91285326 188.98522362 C891.7106992 188.97766931 881.50855039 188.97545187 871.30639383 188.97489456 C859.07992044 188.97397835 846.85345185 188.96730307 834.62698054 188.96054774 C805.77789075 188.94489053 776.92880251 188.93880166 748.0797095 188.93414071 C733.38656009 188.93175363 718.69341114 188.92804933 704.00026209 188.92410361 C656.81344301 188.91143971 609.62662395 188.90065741 562.4398032 188.89726316 C560.18605182 188.89710092 557.93230044 188.89693536 555.67854906 188.89676877 C551.15898567 188.89643499 546.63942227 188.89610451 542.11985888 188.89577421 C536.8291029 188.89538733 531.53834692 188.89499772 526.24759094 188.89460315 C524.73336145 188.89449073 523.21913197 188.89437931 521.70490248 188.8942689 C473.12268803 188.89072312 424.54048841 188.87565941 375.95827961 188.85233115 C341.0335941 188.83556777 306.1089114 188.82010526 271.18422182 188.81559619 C270.46451833 188.81550271 269.74481485 188.81540922 269.00330217 188.8153129 C253.19634556 188.8132929 237.389389 188.81213765 221.58243227 188.81178432 C215.9247623 188.81164816 210.26709232 188.81143918 204.60942235 188.81119106 C203.2021108 188.8111295 201.79479924 188.81107118 200.38748768 188.81101611 C178.04778291 188.81009978 155.70809371 188.80017359 133.36839406 188.78555863 C110.20368049 188.77046475 87.03898787 188.76639471 63.87426861 188.77465159 C50.55005727 188.77908251 37.22590958 188.77534987 23.9017067 188.75941308 C14.96715761 188.74957119 6.03265249 188.75092783 -2.90189632 188.76084931 C-7.97019085 188.766176 -13.03836432 188.76716852 -18.10664818 188.75434059 C-38.13268721 188.70695764 -58.03588854 189.06790146 -78.01581328 190.51310596 C-78.86528688 190.57433363 -79.71476049 190.63556129 -80.58997573 190.69864434 C-154.9840112 196.19002361 -228.54095734 213.85911839 -332.52957575 257.13466892 C-333.46688532 257.56344333 -334.40419489 257.99221774 -335.36990778 258.43398532 C-348.20721046 264.32723389 -360.63405227 270.83906415 -372.97049372 277.71474704 C-375.30641906 279.0108491 -377.65129565 280.28793539 -380.002232 281.55654392 C-409.27724413 297.42745405 -436.98437687 316.06608978 -463.52957575 336.13466892 C-464.15283747 336.60485446 -464.77609919 337.07504001 -465.41824763 337.5594736 C-476.87690474 346.22563213 -487.90902187 355.388411 -498.84256403 364.70205173 C-500.51307978 366.12066047 -502.19058617 367.53060693 -503.8694195 368.93935642 C-518.68255864 381.42089676 -532.44866582 394.96289409 -546.15457575 408.63466892 C-546.76553095 409.24294528 -547.37648615 409.85122165 -548.00595514 410.47793063 C-554.40426194 416.8549377 -560.67455765 423.24870761 -566.52957575 430.13466892 C-568.14925392 431.91037112 -569.77369293 433.68175199 -571.40457575 435.44716892 C-575.4971501 439.93480324 -579.38228409 444.5439712 -583.19363825 449.27138767 C-585.24692732 451.78821189 -587.34427389 454.2593057 -589.46463434 456.71962985 C-595.63851093 463.90242423 -601.34122335 471.37941506 -606.95389216 479.00576267 C-608.52061159 481.12255744 -610.10656038 483.22356888 -611.6975445 485.32216892 C-635.09203151 516.3560269 -655.69559833 549.62727661 -673.52957575 584.13466892 C-673.84668513 584.7469736 -674.1637945 585.35927829 -674.49051325 585.99013767 C-701.9509584 639.06585971 -722.7343016 694.96965757 -736.52957575 753.13466892 C-736.68986262 753.80588779 -736.85014948 754.47710666 -737.01529352 755.1686655 C-743.69509938 783.18650319 -748.44806385 811.52863528 -751.77957575 840.13466892 C-751.93063776 841.41768894 -752.08169977 842.70070895 -752.23733942 844.02260837 C-755.16394401 870.55682653 -755.86242728 897.01156074 -756.04526179 923.6719614 C-756.27411505 956.36665193 -756.92692082 986.56588642 -778.52957575 1013.13466892 C-779.18184138 1013.96224704 -779.834107 1014.78982517 -780.50613825 1015.64248142 C-796.1294943 1034.30858845 -819.45072183 1044.58045677 -843.392857 1046.88076267 C-869.43182651 1048.80293677 -894.04352046 1039.49281126 -913.8381695 1022.66591892 C-933.00587556 1004.63881656 -943.06147924 981.23531522 -944.52957575 955.13466892 C-944.70992693 948.78228925 -944.674776 942.426433 -944.65457575 936.07216892 C-944.65269251 935.17384342 -944.65080927 934.27551791 -944.64886896 933.34997043 C-944.44456317 849.49122354 -934.72144079 767.13104465 -898.52957575 635.13466892 C-898.111074 633.84464436 -897.69261518 632.55460588 -897.27420466 631.26455173 C-887.47656368 601.28256816 -875.71878075 571.78173938 -862.52957575 543.13466892 C-862.2386706 542.50149753 -861.94776545 541.86832614 -861.64804499 541.21596774 C-834.83957938 482.9024329 -802.6518434 427.81316081 -764.52957575 376.13466892 C-764.03151423 375.45646091 -763.5334527 374.7782529 -763.02029841 374.07949313 C-755.93293334 364.44463838 -748.53408835 355.10509727 -740.94266169 345.86367282 C-739.07337374 343.57647564 -737.23794974 341.26320667 -735.40457575 338.94716892 C-728.40917725 330.18451185 -721.1077758 321.68695448 -713.56863825 313.38857517 C-711.73871328 311.36584201 -709.94075847 309.32097457 -708.15457575 307.25966892 C-703.38193689 301.79124671 -698.46432378 296.45642737 -693.52957575 291.13466892 C-692.93999079 290.49851657 -692.35040583 289.86236423 -691.74295466 289.20693454 C-684.13278094 281.01409764 -676.42232764 272.931201 -668.52957575 265.00966892 C-667.84814509 264.32364597 -667.16671442 263.63762302 -666.46463434 262.93081149 C-662.55406331 259.03218916 -658.53865485 255.31809141 -654.34012263 251.73086032 C-652.49061895 250.10032432 -650.75536412 248.39492123 -649.02957575 246.63466892 C-646.06222252 243.62053309 -642.95612283 240.83549559 -639.752232 238.07607517 C-637.19980692 235.8466283 -634.71070061 233.5546551 -632.21707575 231.25966892 C-627.75084061 227.18606983 -623.16036196 223.32639189 -618.455357 219.53310642 C-615.80726136 217.36230438 -613.21811152 215.14172268 -610.63724177 212.89248142 C-603.62236195 206.78794461 -596.36522311 201.0864869 -588.94363825 195.48623142 C-585.97362956 193.24324924 -583.03392425 190.96781658 -580.11551325 188.65810642 C-570.91688525 181.3839747 -561.51924785 174.57442786 -551.7912945 168.02529392 C-548.4347556 165.76370789 -545.15182238 163.42668154 -541.90457575 161.00966892 C-535.40796716 156.23216291 -528.61412431 151.92246879 -521.81522028 147.59218845 C-519.55834499 146.15301461 -517.30742727 144.70486771 -515.0569195 143.25576267 C-440.10310634 95.20803367 -357.85052356 58.75925917 0 0 Z " fill="#FFFFFF" transform="translate(1550.5295757502317,2330.8653310844675)"/>
</svg>
